<svg width="0" height="0" style="position:absolute"><symbol viewBox="0 0 24 24" fill="none" id="svg-facebook" xmlns="http://www.w3.org/2000/svg"><path d="M9.78 22L9.75 13.25H6V9.5H9.75V7C9.75 3.63 11.84 2 14.85 2C16.29 2 17.53 2.1 17.89 2.15V5.68H15.8C14.17 5.68 13.85 6.46 13.85 7.6V9.5H18.5L17.25 13.25H13.85V22H9.78Z" fill="currentColor"/></symbol><symbol viewBox="0 0 24 24" fill="none" id="svg-instagram" xmlns="http://www.w3.org/2000/svg"><path d="M13.0202 2C14.8202 2 15.2002 2.02 16.1202 2.06C17.1802 2.11 17.9102 2.28 18.5402 2.53C19.2002 2.78 19.7602 3.13 20.3102 3.68C20.8702 4.23 21.2102 4.79 21.4702 5.45C21.7202 6.08 21.8802 6.81 21.9302 7.88C21.9802 8.83 21.9902 9.2 21.9902 11.2V12.8C21.9902 14.8 21.9802 15.17 21.9302 16.12C21.9144 16.9468 21.7589 17.7651 21.4702 18.54C21.2102 19.2 20.8702 19.76 20.3202 20.31C19.7602 20.87 19.2002 21.21 18.5402 21.47C17.9102 21.72 17.1802 21.88 16.1202 21.93C15.1702 21.98 14.7902 21.99 12.7902 21.99H11.2002C9.20015 21.99 8.83015 21.98 7.87015 21.93C7.04333 21.9141 6.22515 21.7586 5.45015 21.47C4.78376 21.2195 4.17981 20.8271 3.68015 20.32C3.16796 19.8186 2.77199 19.211 2.52015 18.54C2.23177 17.765 2.07626 16.9468 2.06015 16.12C2.01113 15.0874 1.99112 14.0537 2.00015 13.02V10.97C2.00015 9.17 2.02015 8.79 2.06015 7.87C2.11015 6.81 2.28015 6.08 2.52015 5.45C2.78015 4.79 3.12015 4.23 3.68015 3.68C4.17533 3.16743 4.78059 2.77418 5.45015 2.53C6.22461 2.23821 7.04278 2.07931 7.87015 2.06C8.79015 2.02 9.17015 2 10.9702 2H13.0202ZM13.0402 3.8H10.9502C9.22015 3.8 8.85015 3.82 7.95015 3.86C6.98015 3.9 6.45015 4.06 6.10015 4.2C5.63015 4.38 5.30015 4.6 4.95015 4.95C4.60015 5.3 4.38015 5.63 4.20015 6.1C4.07015 6.45 3.90015 6.98 3.86015 7.96C3.82015 8.86 3.80015 9.22 3.80015 10.96V13.04C3.80015 14.78 3.82015 15.14 3.86015 16.04C3.90015 17.01 4.06015 17.54 4.20015 17.89C4.38015 18.36 4.60015 18.69 4.95015 19.04C5.30015 19.39 5.63015 19.61 6.10015 19.79C6.45015 19.93 6.98015 20.09 7.96015 20.13C8.93015 20.18 9.28015 20.19 11.4402 20.19H12.5502C14.7202 20.19 15.0602 20.18 16.0402 20.13C17.0102 20.09 17.5402 19.93 17.8902 19.79C18.3602 19.61 18.6902 19.39 19.0402 19.04C19.3902 18.69 19.6102 18.36 19.7902 17.89C19.9302 17.54 20.0902 17.01 20.1302 16.04C20.1802 15.06 20.1902 14.72 20.1902 12.55V11.45C20.1902 9.28 20.1802 8.93 20.1302 7.95C20.0902 6.98 19.9302 6.45 19.7902 6.1C19.6292 5.66543 19.373 5.27246 19.0402 4.95C18.7179 4.61692 18.3249 4.3606 17.8902 4.2C17.2971 3.98317 16.6716 3.86822 16.0402 3.86C15.0409 3.81227 14.0405 3.79226 13.0402 3.8ZM12.0002 6.86C13.362 6.86 14.6681 7.40101 15.6311 8.36401C16.5941 9.32701 17.1352 10.6331 17.1352 11.995C17.1352 13.3569 16.5941 14.663 15.6311 15.626C14.6681 16.589 13.362 17.13 12.0002 17.13C10.6383 17.13 9.33216 16.589 8.36916 15.626C7.40616 14.663 6.86515 13.3569 6.86515 11.995C6.86515 10.6331 7.40616 9.32701 8.36916 8.36401C9.33216 7.40101 10.6383 6.86 12.0002 6.86ZM12.0002 8.66C11.1157 8.66 10.2674 9.01136 9.64195 9.6368C9.01652 10.2622 8.66515 11.1105 8.66515 11.995C8.66515 12.8795 9.01652 13.7278 9.64195 14.3532C10.2674 14.9786 11.1157 15.33 12.0002 15.33C12.8847 15.33 13.7329 14.9786 14.3584 14.3532C14.9838 13.7278 15.3352 12.8795 15.3352 11.995C15.3352 11.1105 14.9838 10.2622 14.3584 9.6368C13.7329 9.01136 12.8847 8.66 12.0002 8.66ZM17.3302 5.46C17.6484 5.46 17.9536 5.58643 18.1787 5.81147C18.4037 6.03652 18.5302 6.34174 18.5302 6.66C18.5302 6.97826 18.4037 7.28348 18.1787 7.50853C17.9536 7.73357 17.6484 7.86 17.3302 7.86C17.0119 7.86 16.7067 7.73357 16.4816 7.50853C16.2566 7.28348 16.1302 6.97826 16.1302 6.66C16.1302 6.34174 16.2566 6.03652 16.4816 5.81147C16.7067 5.58643 17.0119 5.46 17.3302 5.46Z" fill="currentColor"/></symbol><symbol viewBox="0 0 24 24" fill="none" id="svg-pinterest" xmlns="http://www.w3.org/2000/svg"><path d="M12.0002 2C9.67571 2.00824 7.42667 2.82602 5.63977 4.31277C3.85286 5.79952 2.63972 7.86234 2.20891 10.1466C1.77809 12.4309 2.15652 14.7939 3.27913 16.8293C4.40174 18.8648 6.1984 20.4456 8.36023 21.3C8.26023 20.51 8.19023 19.3 8.39023 18.43L9.56023 13.46C9.56023 13.46 9.26023 12.86 9.26023 11.98C9.26023 10.59 10.0702 9.56 11.0802 9.56C11.9302 9.56 12.3502 10.2 12.3502 10.96C12.3502 11.82 11.8002 13.1 11.5102 14.29C11.2702 15.29 12.0102 16.1 13.0002 16.1C14.7802 16.1 16.1402 14.23 16.1402 11.53C16.1402 9.13 14.4202 7.47 11.9602 7.47C11.3758 7.44433 10.7923 7.53734 10.2448 7.74342C9.69733 7.94951 9.19729 8.26438 8.77487 8.66904C8.35245 9.07371 8.01641 9.55977 7.78702 10.0979C7.55763 10.636 7.43966 11.215 7.44023 11.8C7.44023 12.66 7.77023 13.58 8.18023 14.08C8.26023 14.18 8.27023 14.27 8.24023 14.37L7.96023 15.5C7.92023 15.68 7.81023 15.73 7.63023 15.64C6.37023 15.05 5.59023 13.24 5.59023 11.76C5.59023 8.61 7.89023 5.72 12.2102 5.72C15.6702 5.72 18.3802 8.18 18.3802 11.49C18.3802 14.94 16.2002 17.71 13.1802 17.71C12.1802 17.71 11.2202 17.18 10.9002 16.56L10.2702 18.93C9.97509 19.8577 9.55811 20.7421 9.03023 21.56C10.4041 21.9816 11.8526 22.1021 13.2772 21.9133C14.7018 21.7245 16.069 21.2309 17.2856 20.4661C18.5023 19.7014 19.5398 18.6833 20.3275 17.4814C21.1152 16.2795 21.6346 14.9219 21.8504 13.5011C22.0661 12.0804 21.9731 10.6298 21.5776 9.24822C21.1822 7.86664 20.4936 6.58652 19.5588 5.49506C18.6241 4.40359 17.465 3.52642 16.1607 2.9233C14.8563 2.32017 13.4373 2.00525 12.0002 2Z" fill="currentColor"/></symbol><symbol viewBox="0 0 24 24" fill="none" id="svg-twitter" xmlns="http://www.w3.org/2000/svg"><path d="M22 5.88C21.25 6.25 20.5 6.38 19.62 6.5C20.5 6 21.12 5.25 21.37 4.25C20.5606 4.73131 19.6743 5.06959 18.75 5.25C17.9485 4.46227 16.8737 4.01446 15.75 4C13.62 4 11.75 5.88 11.75 8.13C11.75 8.5 11.75 8.75 11.88 9C10.2422 8.93823 8.63643 8.52707 7.17046 7.79408C5.70448 7.0611 4.41212 6.02321 3.38 4.75C3.00812 5.39563 2.83425 6.13634 2.88 6.88C2.89162 7.55196 3.06825 8.21077 3.39434 8.79842C3.72043 9.38608 4.18597 9.88456 4.75 10.25C4.12 10.25 3.5 10 2.87 9.75C2.87 11.75 4.25 13.38 6.12 13.75C5.75 13.88 5.37 13.88 5 13.88C4.75 13.88 4.5 13.88 4.25 13.75C4.75 15.38 6.25 16.63 8.13 16.63C6.67779 17.7963 4.8622 18.4156 3 18.38H2C3.87496 19.5591 6.03554 20.2056 8.25 20.25C15.75 20.25 19.88 14 19.88 8.62V8.12C20.7387 7.53355 21.4617 6.76969 22 5.88Z" fill="currentColor"/></symbol><symbol viewBox="0 0 24 24" fill="none" id="svg-youtube" xmlns="http://www.w3.org/2000/svg"><path d="M10.03 15.38V8.62L15.97 12L10.03 15.38ZM23.23 6.5C23.1026 6.01772 22.8508 5.57733 22.4998 5.22285C22.1488 4.86838 21.711 4.61222 21.23 4.48C19.46 4 12.35 4 12.35 4C12.35 4 5.25 4 3.48 4.48C2.99901 4.61222 2.56115 4.86838 2.21018 5.22285C1.85921 5.57733 1.60743 6.01772 1.48 6.5C1 8.28 1 12 1 12C1 12 1 15.72 1.47 17.5C1.5983 17.9835 1.85159 18.4247 2.20441 18.7793C2.55723 19.1338 2.99717 19.3893 3.48 19.52C5.25 20 12.36 20 12.36 20C12.36 20 19.46 20 21.23 19.52C21.711 19.3878 22.1488 19.1316 22.4998 18.7771C22.8508 18.4227 23.1026 17.9823 23.23 17.5C23.71 15.72 23.71 12 23.71 12C23.71 12 23.71 8.28 23.24 6.5H23.23Z" fill="currentColor"/></symbol></svg>